<svg width="369" height="178" viewBox="0 0 369 178" fill="none" xmlns="http://www.w3.org/2000/svg">
<path d="M339.06 144.516V126.696H326.82V174.856H339.06V158.196L339.47 157.646L351.78 174.856H367.23L348.23 149.966L367.23 126.696H352.12L339.06 144.516ZM295.18 149.076V138.076H302.32C303.082 138.011 303.849 138.105 304.572 138.352C305.296 138.598 305.96 138.993 306.523 139.51C307.086 140.027 307.536 140.655 307.843 141.355C308.151 142.055 308.309 142.811 308.309 143.576C308.309 144.34 308.151 145.096 307.843 145.796C307.536 146.496 307.086 147.125 306.523 147.642C305.96 148.159 305.296 148.553 304.572 148.8C303.849 149.047 303.082 149.141 302.32 149.076H295.18ZM308.51 174.856H323.69L310.56 158.326C316.41 156.496 320.01 151.456 320.01 142.546C319.74 131.256 312.01 126.696 302.12 126.696H282.87V174.856H295.18V159.556H297.36L308.51 174.856ZM253.34 154.386L256.88 140.296H257.22L260.55 154.386H253.34ZM262.46 126.696H251.37L234.56 174.856H247.63L250.63 165.196H263.49L266.62 174.856H279.68L262.46 126.696ZM213.07 150.006V138.056H220.14C227.49 137.986 227.49 150.056 220.14 149.966L213.07 150.006ZM200.89 174.896H213.07V160.776H220.21C231.84 160.776 237.76 152.276 237.76 143.706C237.76 135.136 231.91 126.706 220.14 126.706H200.89V174.896ZM340.69 82.7059C340.69 79.1659 344.5 77.2659 348.31 77.2659C352.12 77.2659 356.31 78.9659 356.31 82.7059V99.1759C356.31 102.636 352.44 104.406 348.56 104.406C344.68 104.406 340.73 102.706 340.73 99.1759L340.69 82.7059ZM328.52 99.1759C328.52 110.176 338.52 115.706 348.52 115.706C358.52 115.706 368.45 110.196 368.45 99.1759V82.7059C368.45 71.7059 358.45 66.1759 348.45 66.1759C338.45 66.1759 328.52 71.6159 328.52 82.7059V99.1759ZM298.45 89.2359V78.2359H305.59C306.352 78.1708 307.119 78.2647 307.842 78.5116C308.566 78.7585 309.23 79.153 309.793 79.67C310.356 80.1871 310.806 80.8155 311.113 81.5154C311.421 82.2153 311.579 82.9714 311.579 83.7359C311.579 84.5003 311.421 85.2565 311.113 85.9564C310.806 86.6562 310.356 87.2846 309.793 87.8017C309.23 88.3187 308.566 88.7132 307.842 88.9601C307.119 89.207 306.352 89.3009 305.59 89.2359H298.45ZM311.78 115.006H327L313.82 98.4959C319.67 96.6559 323.28 91.6159 323.28 82.7059C323.01 71.4159 315.28 66.8559 305.39 66.8559H286.13V115.006H298.45V99.7159H300.62L311.78 115.006ZM278.31 76.4459C274.97 68.7659 267.83 66.1759 261.57 66.1759C252.05 66.1759 242.57 71.6159 242.57 82.5059V99.0059C242.57 110.096 252.1 115.676 261.57 115.676C271.04 115.676 280.49 110.096 280.49 99.0059V87.0059H261.1V97.2059H268.78V99.0059C268.78 106.486 254.7 106.556 254.7 99.0059V82.5059C254.7 76.1759 265.45 74.6759 268.1 81.1459L278.31 76.4459ZM215.45 94.5459L219 80.4659H219.34L222.68 94.5459H215.45ZM224.56 66.8559H213.47L196.67 115.006H209.73L212.73 105.346H225.58L228.71 115.006H241.78L224.56 66.8559ZM335.05 55.1859H366.89V43.1859H347.29V7.00586H335.05V55.1859ZM305.52 34.7059L309.06 20.6259H309.4L312.73 34.7059H305.52ZM314.64 7.00586H303.55L286.74 55.1859H299.81L302.81 45.5259H315.67L318.8 55.1859H331.86L314.64 7.00586ZM257.22 37.0059H271.1V55.1859H283.34V7.00586H271.1V25.2559H257.22V7.00586H245V55.1859H257.25L257.22 37.0059ZM215.45 34.7059L219 20.6259H219.34L222.68 34.7059H215.45ZM224.56 7.00586H213.47L196.67 55.1759H209.73L212.73 45.5159H225.58L228.71 55.1759H241.78L224.56 7.00586Z" fill="white"/>
<path d="M170.09 99.7257L167.45 99.7957L167.18 93.3157C167.159 92.8045 166.936 92.3226 166.56 91.9757L160.25 86.1757C159.874 85.8327 159.378 85.6527 158.87 85.6752C158.362 85.6977 157.884 85.9209 157.54 86.2957L151.76 92.5757C151.581 92.7625 151.441 92.9839 151.35 93.2263C151.259 93.4687 151.218 93.7271 151.23 93.9857L151.52 100.856C150.52 100.966 149.46 101.076 148.44 101.206L147.13 92.3557C147.085 92.0434 146.979 91.7429 146.818 91.4717C146.657 91.2005 146.443 90.964 146.19 90.7757L137.57 84.3857C137.317 84.1971 137.03 84.0602 136.724 83.9828C136.418 83.9054 136.1 83.8889 135.788 83.9344C135.476 83.9799 135.176 84.0865 134.906 84.248C134.635 84.4095 134.398 84.6228 134.21 84.8757L127.84 93.4557C127.642 93.711 127.498 94.0041 127.417 94.3171C127.336 94.6301 127.32 94.9563 127.37 95.2757L128.74 104.546C127.74 104.756 126.84 104.966 125.89 105.196L124.58 99.9457L124.3 98.8257C124.183 98.4081 123.911 98.0506 123.54 97.8257L117.23 94.0057C117.044 93.8934 116.837 93.8191 116.622 93.787C116.407 93.7549 116.187 93.7656 115.976 93.8186C115.765 93.8716 115.567 93.9657 115.393 94.0957C115.218 94.2256 115.071 94.3887 114.96 94.5757L111.19 100.866C111.071 101.052 110.991 101.261 110.955 101.479C110.919 101.698 110.928 101.921 110.98 102.136L111.32 103.506L112.65 108.816C105.033 111.196 97.5689 114.042 90.3 117.336C86.1867 115.522 82.0633 113.856 77.93 112.336C63.3007 106.913 48.1142 103.134 32.65 101.066V97.1657H36.07L30.73 81.5757L25.73 97.1657H29.15V100.626C26.6033 100.332 24.0533 100.082 21.5 99.8757V95.8057H24.3L19.9 83.0057L15.78 95.8057H18.58V99.6657C16.81 99.5457 15.02 99.4457 13.24 99.3757H11.36V96.1957H14L9.91 84.1957L6 96.1957H8.66V99.3257C5.76 99.3257 3.04 99.3257 0 99.3257C2.74077 120.907 13.2373 140.755 29.5322 155.169C45.8272 169.582 66.8082 177.577 88.5629 177.663C110.318 177.749 131.361 169.919 147.769 155.635C164.177 141.35 174.829 121.585 177.74 100.026L170.09 99.7257ZM160.84 94.7257L161.15 99.7257L157.46 99.9457L157.16 94.9457L160.84 94.7257ZM139.42 97.1257L140.15 102.046L136.5 102.586L135.76 97.6757L139.42 97.1257ZM119.64 101.406L120.91 106.206L117.34 107.206L116.07 102.396L119.64 101.406ZM29.64 147.276C22.2709 139.904 16.3367 131.227 12.14 121.686C23.0294 126.751 33.2725 133.103 42.65 140.606C53.5127 149.33 63.3761 159.231 72.06 170.126C55.9933 166.843 41.2456 158.911 29.65 147.316L29.64 147.276ZM88.91 171.816C85.9642 171.817 83.0203 171.667 80.09 171.366C79.9993 170.974 79.8216 170.609 79.57 170.296C69.8931 157.595 58.7114 146.114 46.27 136.106C35.027 127.077 22.5721 119.671 9.27 114.106C8.37044 111.384 7.61276 108.616 7 105.816C26.804 109.911 45.7654 117.351 63.07 127.816C80.82 138.536 97 152.286 111.8 168.696C104.356 170.8 96.6559 171.863 88.92 171.856L88.91 171.816ZM117.57 166.816C117.443 166.446 117.243 166.106 116.98 165.816C101.53 148.526 84.63 134.056 66.06 122.866C55.3624 116.405 44.038 111.044 32.26 106.866C47.1705 108.89 61.8123 112.552 75.92 117.786C97.83 125.896 119.25 137.976 140.15 154.376C133.315 159.667 125.701 163.866 117.58 166.826L117.57 166.816ZM148.17 147.306C147.05 148.426 145.89 149.516 144.71 150.576C130.068 138.858 114.175 128.797 97.32 120.576C106.081 116.885 115.106 113.856 124.32 111.516C122.64 114.976 121.04 118.626 119.86 121.336L119.51 122.116C119.202 122.821 119.188 123.62 119.469 124.336C119.75 125.053 120.305 125.628 121.01 125.936C121.715 126.243 122.514 126.258 123.231 125.977C123.947 125.696 124.522 125.141 124.83 124.436L125.17 123.656C126.82 119.896 129.28 114.276 131.62 110.016C131.657 109.948 131.691 109.878 131.72 109.806C137.667 108.546 143.667 107.562 149.72 106.856C147.56 110.722 145.517 114.599 143.59 118.486C141.11 123.486 138.843 128.466 136.79 133.426C136.644 133.778 136.568 134.155 136.567 134.536C136.567 134.917 136.641 135.295 136.787 135.647C136.932 136 137.145 136.32 137.414 136.59C137.683 136.86 138.003 137.074 138.355 137.221C138.707 137.367 139.084 137.443 139.465 137.443C139.847 137.444 140.224 137.37 140.577 137.224C140.929 137.079 141.249 136.866 141.519 136.596C141.789 136.327 142.004 136.008 142.15 135.656C144.15 130.769 146.363 125.899 148.79 121.046C151.217 116.192 153.83 111.326 156.63 106.446C156.69 106.346 156.73 106.256 156.78 106.166C161.447 105.786 166.13 105.559 170.83 105.486C167.484 121.326 159.616 135.856 148.18 147.316L148.17 147.306ZM172.91 62.9257C172.711 62.1829 172.225 61.5493 171.56 61.1633C170.895 60.7772 170.104 60.6703 169.36 60.8657L133.52 72.1357C133.152 72.2342 132.806 72.4043 132.504 72.6363C132.201 72.8682 131.947 73.1575 131.756 73.4876C131.565 73.8177 131.441 74.1822 131.392 74.5602C131.342 74.9382 131.367 75.3224 131.465 75.6907C131.563 76.0591 131.734 76.4044 131.966 76.7071C132.197 77.0097 132.487 77.2637 132.817 77.4545C133.147 77.6453 133.511 77.7692 133.889 77.8192C134.267 77.8692 134.652 77.8442 135.02 77.7457L170.87 66.4857C171.612 66.2865 172.245 65.8007 172.63 65.135C173.014 64.4694 173.119 63.6783 172.92 62.9357L172.91 62.9257ZM42.55 72.0857L5.7 62.2157C5.32826 62.1041 4.93791 62.0683 4.55207 62.1104C4.16623 62.1525 3.79276 62.2715 3.45379 62.4606C3.11483 62.6496 2.81726 62.9048 2.57871 63.211C2.34017 63.5171 2.16552 63.8681 2.0651 64.243C1.96468 64.6179 1.94053 65.0091 1.9941 65.3935C2.04766 65.778 2.17785 66.1477 2.37693 66.4809C2.57602 66.814 2.83996 67.1039 3.15312 67.3332C3.46627 67.5624 3.82226 67.7265 4.2 67.8157L41.05 77.6957C41.4184 77.7942 41.8025 77.8192 42.1805 77.7692C42.5585 77.7192 42.923 77.5953 43.2531 77.4045C43.5832 77.2137 43.8725 76.9597 44.1045 76.6571C44.3364 76.3544 44.5065 76.0091 44.605 75.6407C44.7035 75.2724 44.7285 74.8882 44.6785 74.5102C44.6285 74.1322 44.5046 73.7677 44.3138 73.4376C44.1229 73.1075 43.869 72.8182 43.5663 72.5863C43.2637 72.3543 42.9184 72.1842 42.55 72.0857ZM48.74 58.8757L16.61 38.3157C16.2891 38.0928 15.9264 37.9369 15.5438 37.8577C15.1611 37.7784 14.7664 37.7772 14.3833 37.8543C14.0002 37.9314 13.6366 38.0851 13.3144 38.3062C12.9922 38.5274 12.718 38.8113 12.5083 39.141C12.2986 39.4708 12.1577 39.8395 12.0941 40.2251C12.0304 40.6106 12.0454 41.0051 12.138 41.3847C12.2306 41.7644 12.399 42.1214 12.6331 42.4343C12.8671 42.7472 13.162 43.0096 13.5 43.2057L45.63 63.7557C45.9504 63.9599 46.3079 64.099 46.6821 64.1651C47.0563 64.2311 47.4398 64.2228 47.8108 64.1406C48.1818 64.0584 48.5329 63.904 48.8442 63.6861C49.1555 63.4682 49.4208 63.1912 49.625 62.8707C49.8292 62.5503 49.9683 62.1928 50.0343 61.8186C50.1004 61.4444 50.0921 61.0609 50.0099 60.6899C49.9277 60.319 49.7733 59.9678 49.5554 59.6565C49.3375 59.3452 49.0604 59.0799 48.74 58.8757ZM60.47 47.9357L35.67 18.9357C35.1714 18.3522 34.4614 17.9907 33.6963 17.9307C32.9311 17.8707 32.1735 18.1171 31.59 18.6157C31.0065 19.1143 30.645 19.8243 30.585 20.5894C30.525 21.3546 30.7714 22.1122 31.27 22.6957L56.06 51.6957C56.3075 51.9853 56.6097 52.2233 56.9492 52.3961C57.2887 52.5688 57.6589 52.6731 58.0387 52.7028C58.4185 52.7325 58.8004 52.6871 59.1627 52.5692C59.5249 52.4513 59.8604 52.2633 60.15 52.0157C60.4396 51.7682 60.6775 51.466 60.8503 51.1265C61.0231 50.787 61.1273 50.4168 61.1571 50.037C61.1868 49.6572 61.1414 49.2753 61.0235 48.913C60.9056 48.5508 60.7175 48.2153 60.47 47.9257V47.9357ZM75.31 42.2957L64.82 5.61572C64.6092 4.87577 64.113 4.24988 63.4407 3.87574C62.7684 3.50161 61.975 3.40987 61.235 3.62072C60.495 3.83157 59.8692 4.32772 59.495 5.00004C59.1209 5.67236 59.0292 6.46577 59.24 7.20572L69.73 43.8857C69.8344 44.2521 70.0099 44.5943 70.2466 44.8929C70.4833 45.1914 70.7764 45.4404 71.1093 45.6257C71.4422 45.811 71.8083 45.9288 72.1868 45.9726C72.5652 46.0163 72.9486 45.9851 73.315 45.8807C73.6814 45.7763 74.0236 45.6008 74.3222 45.3641C74.6207 45.1274 74.8697 44.8343 75.055 44.5014C75.2402 44.1685 75.3581 43.8024 75.4019 43.4239C75.4456 43.0455 75.4144 42.6621 75.31 42.2957ZM92.81 0.0057211C92.0885 -0.0383464 91.3786 0.20346 90.834 0.678817C90.2894 1.15417 89.9539 1.82485 89.9 2.54572L88.77 36.8057C88.8708 37.5057 89.2204 38.1458 89.7549 38.6089C90.2894 39.0719 90.9728 39.3268 91.68 39.3268C92.3872 39.3268 93.0706 39.0719 93.6051 38.6089C94.1396 38.1458 94.4892 37.5057 94.59 36.8057L95.72 2.54572C95.6687 1.82387 95.3339 1.15163 94.7887 0.675749C94.2435 0.19987 93.5322 -0.0409999 92.81 0.0057211ZM124.05 7.35572C123.715 7.17616 123.347 7.06475 122.969 7.02792C122.59 6.99108 122.209 7.02956 121.845 7.14112C121.481 7.25268 121.144 7.43512 120.851 7.67792C120.558 7.92071 120.317 8.21905 120.14 8.55572L108.68 32.2457C108.314 32.9234 108.232 33.7186 108.453 34.4566C108.673 35.1945 109.177 35.8147 109.855 36.1807C110.533 36.5467 111.328 36.6285 112.066 36.4082C112.804 36.1878 113.424 35.6833 113.79 35.0057L125.25 11.3157C125.433 10.9774 125.548 10.606 125.587 10.2232C125.626 9.84032 125.588 9.45356 125.477 9.08527C125.365 8.71698 125.181 8.37448 124.936 8.07761C124.692 7.78073 124.39 7.53537 124.05 7.35572ZM148.84 23.2857C148.571 23.0154 148.252 22.8009 147.9 22.6545C147.548 22.5081 147.171 22.4328 146.79 22.4328C146.409 22.4328 146.032 22.5081 145.68 22.6545C145.328 22.8009 145.009 23.0154 144.74 23.2857L119.92 44.6257C119.455 45.181 119.214 45.8903 119.245 46.6142C119.276 47.338 119.578 48.0239 120.089 48.5369C120.601 49.0498 121.286 49.3526 122.01 49.3857C122.734 49.4188 123.444 49.1798 124 48.7157L148.82 27.3757C149.091 27.1093 149.307 26.7918 149.455 26.4415C149.603 26.0912 149.68 25.7151 149.682 25.3349C149.684 24.9546 149.611 24.5778 149.466 24.2261C149.321 23.8744 149.109 23.5548 148.84 23.2857ZM164.6 41.1557C164.41 40.8266 164.158 40.538 163.857 40.3066C163.555 40.0751 163.212 39.9053 162.845 39.8069C162.478 39.7084 162.095 39.6833 161.719 39.7328C161.342 39.7824 160.979 39.9057 160.65 40.0957L126.86 57.4057C126.508 57.582 126.196 57.8283 125.942 58.1296C125.689 58.4309 125.499 58.7809 125.386 59.1579C125.273 59.535 125.238 59.9313 125.283 60.3224C125.328 60.7135 125.453 61.0913 125.649 61.4324C125.846 61.7736 126.11 62.0711 126.426 62.3065C126.741 62.5419 127.102 62.7104 127.485 62.8015C127.868 62.8926 128.265 62.9045 128.653 62.8365C129.041 62.7684 129.411 62.6218 129.74 62.4057L163.54 45.0957C164.2 44.711 164.682 44.0814 164.88 43.3437C165.079 42.6059 164.978 41.8197 164.6 41.1557Z" fill="white"/>
<path fill-rule="evenodd" clip-rule="evenodd" d="M92.4699 44.0958C92.4728 44.4797 92.3757 44.8577 92.188 45.1926C92.0004 45.5275 91.7288 45.8078 91.3999 46.0058C90.2199 46.8058 88.8599 46.4758 89.6599 45.4758C90.0946 44.7639 90.7792 44.2397 91.5799 44.0058C91.8741 43.9251 92.1866 43.9426 92.4699 44.0558V44.0958ZM62.9199 48.9358C62.9199 48.9358 64.6599 52.1958 71.6799 53.1858C78.6999 54.1758 85.0599 55.3358 88.1499 57.1258C90.4166 58.6266 92.4259 60.4839 94.0999 62.6258C95.5524 60.3861 97.6827 58.6692 100.18 57.7258C104.41 56.0958 109.39 54.4858 112.62 52.3358C114.696 50.901 116.593 49.2223 118.27 47.3358C115.582 49.7922 112.381 51.6197 108.9 52.6858C103.69 54.0458 101.61 54.1658 100.54 54.6358C99.4699 55.1058 98.7699 54.8958 99.1099 53.8458C99.6142 51.278 101.036 48.9817 103.11 47.3858C105.419 45.8223 107.361 43.7749 108.8 41.3858C109.363 40.3282 109.646 39.1438 109.62 37.9458C108.911 40.5342 107.217 42.742 104.9 44.0958C101.05 46.4058 99.0799 48.0058 97.5799 50.0058C96.9059 50.8051 96.3286 51.6812 95.8599 52.6158C95.6094 50.8188 95.2352 49.0413 94.7399 47.2958C94.4334 46.0301 93.8378 44.8527 92.9999 43.8558C92.4665 43.6428 91.8781 43.6095 91.3241 43.7611C90.7701 43.9127 90.2806 44.2409 89.9299 44.6958C88.5899 46.1058 88.9299 46.6158 89.6099 47.5058C90.5209 48.9802 91.291 50.537 91.9099 52.1558C92.4699 53.4458 92.6099 54.5158 92.0799 54.3558C88.8947 53.0803 85.5096 52.3762 82.0799 52.2758C76.0799 52.0258 74.0099 52.2758 69.9099 51.4658C65.8099 50.6558 64.6199 50.2258 63.7699 49.5858L62.9199 48.9358Z" fill="#00A651"/>
<path fill-rule="evenodd" clip-rule="evenodd" d="M90.3399 60.0056C90.3399 60.0056 86.9399 57.0056 80.3399 56.0056C73.7399 55.0056 72.6699 54.3056 70.8399 54.6856C69.0099 55.0656 63.8399 57.7456 59.5899 61.6856C52.4025 68.4155 48.0474 77.6298 47.4099 87.4556C47.1819 91.1426 47.6466 94.8396 48.7799 98.3556C59.6634 100.593 70.3609 103.655 80.7799 107.516C83.9666 108.696 87.1266 109.946 90.2599 111.266C97.1365 108.3 104.17 105.712 111.33 103.516L110.98 102.146C110.927 101.931 110.919 101.707 110.955 101.489C110.991 101.271 111.071 101.062 111.19 100.876L115 94.5856C115.111 94.3986 115.258 94.2354 115.433 94.1055C115.607 93.9756 115.805 93.8814 116.016 93.8284C116.227 93.7754 116.447 93.7647 116.662 93.7968C116.877 93.8289 117.084 93.9033 117.27 94.0156L123.58 97.8056C123.951 98.0304 124.223 98.3879 124.34 98.8056L124.62 99.9256H124.81C132.36 83.1156 121.2 68.0856 119.12 65.8256C117.04 63.5656 114.83 60.3756 108.12 60.5556C103.934 60.699 99.7902 61.4502 95.8199 62.7856C97.7475 64.276 99.5441 65.9287 101.19 67.7256C102.297 68.863 103.144 70.228 103.67 71.7256C103.67 71.7256 94.6699 60.2956 80.4099 60.3856C66.1499 60.4756 57.8599 71.0756 57.8599 71.0756C57.8599 71.0756 62.2499 63.3656 69.9999 60.4056C74.7765 58.4125 80.0283 57.8464 85.1199 58.7756C86.9016 58.9823 88.6533 59.3951 90.3399 60.0056Z" fill="#ED1C24"/>
<path fill-rule="evenodd" clip-rule="evenodd" d="M99.4199 59.6056C99.4199 59.6056 102.82 57.8556 104.65 57.0956C105.504 56.7057 106.4 56.4139 107.32 56.2256L111.74 58.8456C109.263 58.4398 106.742 58.386 104.25 58.6856C100.02 59.1756 99.4199 59.6056 99.4199 59.6056Z" fill="#003E26"/>
</svg>
