<svg width="223" height="223" viewBox="0 0 223 223" fill="none" xmlns="http://www.w3.org/2000/svg">
<path d="M38.3281 163.766C36.2607 163.766 34.2397 164.379 32.5207 165.527C30.8017 166.676 29.4619 168.308 28.6707 170.219C27.8795 172.129 27.6725 174.23 28.0759 176.258C28.4792 178.286 29.4748 180.148 30.9367 181.61C32.3985 183.072 34.2611 184.068 36.2888 184.471C38.3165 184.874 40.4183 184.667 42.3284 183.876C44.2384 183.085 45.871 181.745 47.0196 180.026C48.1682 178.307 48.7812 176.286 48.7812 174.219C48.7781 171.447 47.6758 168.79 45.7162 166.831C43.7565 164.871 41.0995 163.769 38.3281 163.766ZM38.3281 177.703C37.639 177.703 36.9653 177.499 36.3923 177.116C35.8193 176.733 35.3727 176.189 35.109 175.552C34.8453 174.915 34.7763 174.215 34.9107 173.539C35.0452 172.863 35.377 172.242 35.8643 171.755C36.3516 171.268 36.9725 170.936 37.6484 170.801C38.3243 170.667 39.0249 170.736 39.6615 171C40.2982 171.263 40.8424 171.71 41.2253 172.283C41.6081 172.856 41.8125 173.53 41.8125 174.219C41.8115 175.143 41.444 176.028 40.7908 176.681C40.1376 177.335 39.2519 177.702 38.3281 177.703Z" fill="#D91F2A"/>
<path d="M184.672 163.766C182.604 163.766 180.583 164.379 178.864 165.527C177.145 166.676 175.806 168.308 175.014 170.219C174.223 172.129 174.016 174.23 174.42 176.258C174.823 178.286 175.819 180.148 177.28 181.61C178.742 183.072 180.605 184.068 182.633 184.471C184.66 184.874 186.762 184.667 188.672 183.876C190.582 183.085 192.215 181.745 193.363 180.026C194.512 178.307 195.125 176.286 195.125 174.219C195.122 171.447 194.02 168.79 192.06 166.831C190.1 164.871 187.443 163.769 184.672 163.766ZM184.672 177.703C183.983 177.703 183.309 177.499 182.736 177.116C182.163 176.733 181.716 176.189 181.453 175.552C181.189 174.915 181.12 174.215 181.254 173.539C181.389 172.863 181.721 172.242 182.208 171.755C182.695 171.268 183.316 170.936 183.992 170.801C184.668 170.667 185.369 170.736 186.005 171C186.642 171.263 187.186 171.71 187.569 172.283C187.952 172.856 188.156 173.53 188.156 174.219C188.155 175.143 187.788 176.028 187.135 176.681C186.481 177.335 185.596 177.702 184.672 177.703Z" fill="#D91F2A"/>
<path d="M215.997 132.57L211.515 132.563L198.013 93.0811C197.778 92.3944 197.335 91.7982 196.745 91.3757C196.155 90.9532 195.448 90.7255 194.722 90.7243L156.829 90.6651L156.873 62.7901C156.874 62.3325 156.784 61.8792 156.61 61.4562C156.435 61.0331 156.179 60.6485 155.856 60.3245C155.533 60.0004 155.149 59.7431 154.727 59.5673C154.304 59.3916 153.851 59.3007 153.394 59.3001L104.018 59.223C104.552 57.3245 104.845 55.3662 104.889 53.3945C104.895 49.4127 104.117 45.4687 102.599 41.7877C101.081 38.1066 98.853 34.7606 96.0419 31.9407C93.2308 29.1207 89.8918 26.8821 86.2155 25.3526C82.5392 23.8231 78.5977 23.0326 74.6159 23.0264C70.6341 23.0202 66.6901 23.7983 63.0091 25.3163C59.328 26.8342 55.982 29.0624 53.1621 31.8735C50.3422 34.6847 48.1035 38.0237 46.574 41.7C45.0445 45.3762 44.2541 49.3178 44.2478 53.2995C44.2859 55.2714 44.5726 57.2305 45.1011 59.1306L7.04952 59.071C6.5919 59.0702 6.13863 59.1596 5.71557 59.3341C5.29251 59.5085 4.90796 59.7646 4.58388 60.0877C4.25979 60.4107 4.00252 60.7945 3.82675 61.217C3.65098 61.6395 3.56016 62.0925 3.55948 62.5501L3.38526 174.05C3.38451 174.508 3.47392 174.961 3.64836 175.384C3.82281 175.807 4.07888 176.192 4.40196 176.516C4.72503 176.84 5.10878 177.097 5.53129 177.273C5.9538 177.449 6.4068 177.539 6.86441 177.54L14.0858 177.551C14.9139 183.358 17.8066 188.671 22.2338 192.517C26.661 196.364 32.3261 198.486 38.1909 198.495C44.0558 198.505 49.7275 196.4 54.1666 192.567C58.6058 188.734 61.5151 183.43 62.3614 177.627L160.43 177.781C161.258 183.587 164.15 188.9 168.577 192.746C173.005 196.593 178.67 198.716 184.535 198.725C190.399 198.734 196.071 196.629 200.51 192.797C204.949 188.964 207.859 183.66 208.705 177.856L215.926 177.868C216.384 177.868 216.837 177.779 217.26 177.605C217.683 177.43 218.068 177.174 218.392 176.851C218.716 176.528 218.973 176.144 219.149 175.722C219.325 175.299 219.416 174.846 219.417 174.389L219.477 136.06C219.477 135.603 219.388 135.149 219.213 134.726C219.039 134.303 218.783 133.919 218.46 133.595C218.137 133.271 217.753 133.013 217.33 132.838C216.908 132.662 216.455 132.571 215.997 132.57ZM192.203 97.5629L204.18 132.407H156.797V97.5629H192.203ZM74.4783 30.0531C80.6694 30.0601 86.6049 32.5226 90.9827 36.9004C95.3605 41.2782 97.8231 47.2138 97.8301 53.4049C97.8301 63.3694 82.8943 86.3789 74.4778 98.1792C66.0618 86.3798 51.1264 63.3742 51.1264 53.4049C51.1335 47.2138 53.596 41.2782 57.9738 36.9004C62.3516 32.5226 68.2871 30.0601 74.4783 30.0531ZM10.4529 66.2035H47.4382C49.7652 71.7828 53.3188 78.4299 58.0991 86.1446C64.8109 96.9696 71.4107 105.812 71.6882 106.183C72.0126 106.617 72.4337 106.969 72.9181 107.212C73.4024 107.454 73.9366 107.58 74.4783 107.58C75.0199 107.58 75.5541 107.454 76.0385 107.212C76.5228 106.969 76.9439 106.617 77.2684 106.183C77.5458 105.812 84.1457 96.9696 90.8575 86.1446C95.6342 78.4421 99.1879 71.795 101.518 66.2035H149.828V170.735H62.4655C61.6285 164.93 58.7277 159.621 54.2945 155.781C49.8613 151.941 44.1928 149.828 38.3279 149.828C32.4629 149.828 26.7944 151.941 22.3613 155.781C17.9281 159.621 15.0272 164.93 14.1903 170.735H10.4529V66.2035ZM38.3279 191.641C34.8822 191.641 31.5138 190.619 28.6488 188.705C25.7838 186.791 23.5508 184.07 22.2322 180.886C20.9135 177.703 20.5685 174.2 21.2408 170.82C21.913 167.441 23.5723 164.336 26.0088 161.9C28.4452 159.464 31.5495 157.804 34.929 157.132C38.3086 156.46 41.8115 156.805 44.9949 158.123C48.1784 159.442 50.8993 161.675 52.8136 164.54C54.728 167.405 55.7498 170.773 55.7498 174.219C55.7446 178.838 53.9074 183.266 50.6413 186.533C47.3752 189.799 42.9469 191.636 38.3279 191.641ZM184.672 191.641C181.226 191.641 177.858 190.619 174.993 188.705C172.128 186.791 169.895 184.07 168.576 180.886C167.257 177.703 166.912 174.2 167.585 170.82C168.257 167.441 169.916 164.336 172.353 161.9C174.789 159.464 177.893 157.804 181.273 157.132C184.652 156.46 188.155 156.805 191.339 158.123C194.522 159.442 197.243 161.675 199.157 164.54C201.072 167.405 202.094 170.773 202.094 174.219C202.088 178.838 200.251 183.266 196.985 186.533C193.719 189.799 189.291 191.636 184.672 191.641ZM212.547 170.735H208.809C207.972 164.93 205.071 159.621 200.638 155.781C196.205 151.941 190.537 149.828 184.672 149.828C178.807 149.828 173.138 151.941 168.705 155.781C164.272 159.621 161.371 164.93 160.534 170.735H156.797V139.375H212.547V170.735Z" fill="#D91F2A"/>
<path d="M89.9431 52.3932C89.943 49.3346 89.036 46.3446 87.3366 43.8015C85.6372 41.2584 83.2219 39.2762 80.396 38.1058C77.5702 36.9354 74.4607 36.6292 71.4608 37.2259C68.4609 37.8227 65.7054 39.2956 63.5426 41.4585C61.3798 43.6213 59.907 46.3769 59.3103 49.3768C58.7136 52.3767 59.0199 55.4861 60.1904 58.312C61.361 61.1378 63.3431 63.5531 65.8863 65.2524C68.4295 66.9517 71.4195 67.8587 74.4782 67.8587C78.5784 67.854 82.5093 66.2232 85.4086 63.3238C88.3079 60.4245 89.9386 56.4935 89.9431 52.3932ZM65.9819 52.3932C65.982 50.7129 66.4804 49.0703 67.414 47.6731C68.3476 46.276 69.6746 45.1871 71.2271 44.5441C72.7796 43.9011 74.4879 43.7329 76.136 44.0608C77.784 44.3887 79.2979 45.1979 80.486 46.3861C81.6742 47.5743 82.4834 49.0882 82.8111 50.7363C83.1389 52.3844 82.9707 54.0927 82.3276 55.6451C81.6845 57.1976 80.5955 58.5245 79.1983 59.4581C77.8012 60.3916 76.1585 60.8899 74.4782 60.8899C72.2255 60.8875 70.0658 59.9915 68.4729 58.3986C66.8801 56.8057 65.9842 54.6459 65.9819 52.3932Z" fill="#D91F2A"/>
<path d="M34.8438 139.375H118.469C119.393 139.375 120.279 139.008 120.933 138.354C121.586 137.701 121.953 136.815 121.953 135.891C121.953 134.967 121.586 134.08 120.933 133.427C120.279 132.773 119.393 132.406 118.469 132.406H38.3281V128.922H73.1719C74.096 128.922 74.9823 128.555 75.6357 127.901C76.2892 127.248 76.6562 126.362 76.6562 125.438V114.984C76.6562 114.06 76.2892 113.174 75.6357 112.521C74.9823 111.867 74.096 111.5 73.1719 111.5C72.2478 111.5 71.3615 111.867 70.708 112.521C70.0546 113.174 69.6875 114.06 69.6875 114.984V121.953H34.8438C33.9196 121.953 33.0334 122.32 32.3799 122.974C31.7265 123.627 31.3594 124.513 31.3594 125.438V135.891C31.3594 136.815 31.7265 137.701 32.3799 138.354C33.0334 139.008 33.9196 139.375 34.8438 139.375Z" fill="#D91F2A"/>
<path d="M128.922 138.939H132.406C133.33 138.939 134.217 138.572 134.87 137.919C135.524 137.265 135.891 136.379 135.891 135.455C135.891 134.531 135.524 133.645 134.87 132.991C134.217 132.338 133.33 131.971 132.406 131.971H128.922C127.998 131.971 127.111 132.338 126.458 132.991C125.805 133.645 125.438 134.531 125.438 135.455C125.438 136.379 125.805 137.265 126.458 137.919C127.111 138.572 127.998 138.939 128.922 138.939Z" fill="#D91F2A"/>
<path d="M128.922 160.281H101.047C100.123 160.281 99.2365 160.648 98.583 161.302C97.9296 161.955 97.5625 162.842 97.5625 163.766C97.5625 164.69 97.9296 165.576 98.583 166.229C99.2365 166.883 100.123 167.25 101.047 167.25H128.922C129.846 167.25 130.732 166.883 131.386 166.229C132.039 165.576 132.406 164.69 132.406 163.766C132.406 162.842 132.039 161.955 131.386 161.302C130.732 160.648 129.846 160.281 128.922 160.281Z" fill="#D91F2A"/>
<path d="M139.375 167.25H142.859C143.783 167.25 144.67 166.883 145.323 166.229C145.977 165.576 146.344 164.69 146.344 163.766C146.344 162.842 145.977 161.955 145.323 161.302C144.67 160.648 143.783 160.281 142.859 160.281H139.375C138.451 160.281 137.565 160.648 136.911 161.302C136.258 161.955 135.891 162.842 135.891 163.766C135.891 164.69 136.258 165.576 136.911 166.229C137.565 166.883 138.451 167.25 139.375 167.25Z" fill="#D91F2A"/>
</svg>
