<svg width="35" height="34" viewBox="0 0 35 34" fill="none" xmlns="http://www.w3.org/2000/svg">
<g clip-path="url(#clip0)">
<path d="M0.477095 17.5078C2.54756 19.185 4.89421 21.0862 9.43334 21.0862C13.9726 21.0861 16.3194 19.185 18.3899 17.5078C20.348 15.9216 22.0391 14.5517 25.5663 14.5517C29.0936 14.5517 30.7846 15.9216 32.7427 17.5078C33.3158 17.972 34.179 17.9097 34.6705 17.3684C35.1621 16.827 35.0961 16.0119 34.5229 15.5476C32.4523 13.8704 30.1056 11.9692 25.5663 11.9692C21.027 11.9692 18.6802 13.8703 16.6097 15.5476C14.6516 17.1338 12.9605 18.5037 9.43334 18.5037C5.9062 18.5037 4.21533 17.1338 2.25738 15.5476C1.68425 15.0834 0.821148 15.1457 0.329507 15.687C-0.162133 16.2283 -0.0960297 17.0435 0.477095 17.5078Z" fill="url(#paint0_linear)"/>
<path d="M0.477095 10.4453C2.5475 12.1226 4.89414 14.0237 9.43333 14.0237C13.9726 14.0237 16.3194 12.1226 18.3899 10.4453C20.348 8.85914 22.039 7.4892 25.5663 7.4892C29.0934 7.4892 30.7845 8.85907 32.7426 10.4453C33.3158 10.9097 34.1789 10.8471 34.6704 10.3058C35.1621 9.76448 35.0958 8.9492 34.5227 8.485C32.4522 6.80769 30.1054 4.90674 25.5663 4.90674C21.027 4.90674 18.6802 6.80782 16.6097 8.48513C14.6516 10.0713 12.9605 11.4412 9.43333 11.4412C5.90626 11.4412 4.21533 10.0713 2.25738 8.48513C1.68425 8.0208 0.821079 8.08317 0.329507 8.62452C-0.162133 9.1658 -0.0960297 9.98102 0.477095 10.4453Z" fill="url(#paint1_linear)"/>
<path d="M34.5228 22.6101C32.4523 20.9329 30.1055 19.0317 25.5662 19.0317C21.027 19.0317 18.6802 20.9328 16.6096 22.6101C14.6516 24.1963 12.9605 25.5662 9.43327 25.5662C5.90634 25.5662 4.21534 24.1964 2.25739 22.6103L2.25725 22.6101C1.68413 22.146 0.821091 22.2084 0.32945 22.7496C-0.162122 23.2909 -0.0960183 24.1061 0.477106 24.5704C2.54757 26.2477 4.89428 28.1487 9.43327 28.1487C13.9725 28.1487 16.3193 26.2476 18.3899 24.5703C20.3479 22.9841 22.039 21.6142 25.5662 21.6142C29.0935 21.6142 30.7846 22.9841 32.7426 24.5703C33.3158 25.0346 34.1789 24.9722 34.6705 24.4309C35.162 23.8896 35.096 23.0744 34.5228 22.6101Z" fill="url(#paint2_linear)"/>
</g>
<defs>
<linearGradient id="paint0_linear" x1="12.25" y1="9.74288" x2="36.5518" y2="19.2939" gradientUnits="userSpaceOnUse">
<stop stop-color="#253F94"/>
<stop offset="1" stop-color="#702594"/>
</linearGradient>
<linearGradient id="paint1_linear" x1="17.4999" y1="4.90674" x2="36.7054" y2="25.0426" gradientUnits="userSpaceOnUse">
<stop stop-color="#253F94"/>
<stop offset="1" stop-color="#772594"/>
</linearGradient>
<linearGradient id="paint2_linear" x1="7.58333" y1="18.7888" x2="36.0462" y2="26.5793" gradientUnits="userSpaceOnUse">
<stop stop-color="#253F94"/>
<stop offset="1" stop-color="#772594"/>
</linearGradient>
<clipPath id="clip0">
<rect width="35" height="33.0556" fill="white"/>
</clipPath>
</defs>
</svg>
